<?xml version="1.0" encoding="UTF-8"?>
<!DOCTYPE svg PUBLIC "-//W3C//DTD SVG 1.1//EN" "http://www.w3.org/Graphics/SVG/1.1/DTD/svg11.dtd">
<svg xmlns="http://www.w3.org/2000/svg" version="1.1" width="500px" height="500px" style="shape-rendering:geometricPrecision; text-rendering:geometricPrecision; image-rendering:optimizeQuality; fill-rule:evenodd; clip-rule:evenodd" xmlns:xlink="http://www.w3.org/1999/xlink">
<g><path style="opacity:1" fill="#060506" d="M 248.5,147.5 C 249.552,149.256 251.219,149.923 253.5,149.5C 259.5,152.169 264.833,155.836 269.5,160.5C 269.738,162.404 270.738,163.738 272.5,164.5C 273.5,164.833 274.167,165.5 274.5,166.5C 275.535,168.205 275.535,169.872 274.5,171.5C 276.6,174.461 278.933,176.461 281.5,177.5C 283.873,179.579 285.206,182.246 285.5,185.5C 285.69,188.855 286.69,191.855 288.5,194.5C 289.234,195.708 289.567,197.041 289.5,198.5C 289.632,207.191 289.299,215.858 288.5,224.5C 288.5,225.167 288.5,225.833 288.5,226.5C 286.72,227.99 286.054,229.99 286.5,232.5C 284.799,238.903 281.799,244.57 277.5,249.5C 276.094,249.973 275.427,250.973 275.5,252.5C 269.988,259.58 263.321,265.247 255.5,269.5C 254.355,271.953 254.688,274.287 256.5,276.5C 258.75,279.999 260.75,283.665 262.5,287.5C 263.419,290.089 265.086,292.089 267.5,293.5C 268.5,294.167 269.5,294.833 270.5,295.5C 270.5,296.833 271.167,297.5 272.5,297.5C 278.871,303.069 286.204,306.736 294.5,308.5C 296.438,310.163 298.772,310.829 301.5,310.5C 301.833,310.5 302.167,310.5 302.5,310.5C 305.5,311.833 308.5,311.833 311.5,310.5C 316.1,309.288 320.766,308.288 325.5,307.5C 328.313,307.975 330.313,306.975 331.5,304.5C 331.833,304.5 332.167,304.5 332.5,304.5C 334.027,304.573 335.027,303.906 335.5,302.5C 337.619,300.6 339.953,298.934 342.5,297.5C 345.303,297.961 347.637,299.295 349.5,301.5C 353.833,305.167 357.833,309.167 361.5,313.5C 361.738,315.404 362.738,316.738 364.5,317.5C 367.084,319.578 369.584,321.912 372,324.5C 373.122,327.872 371.955,329.872 368.5,330.5C 367.292,331.234 365.959,331.567 364.5,331.5C 364.5,332.5 364.5,333.5 364.5,334.5C 342.734,349.322 318.734,354.989 292.5,351.5C 290.162,349.96 287.495,349.294 284.5,349.5C 270.911,347.037 258.911,341.37 248.5,332.5C 248.027,331.094 247.027,330.427 245.5,330.5C 240.5,326.833 236.167,322.5 232.5,317.5C 232.446,315.368 231.446,314.035 229.5,313.5C 223.355,306.213 219.022,297.88 216.5,288.5C 216.662,286.473 216.495,284.473 216,282.5C 215.764,280.881 214.931,279.881 213.5,279.5C 193.098,278.828 172.598,278.161 152,277.5C 151.5,232.168 151.333,186.835 151.5,141.5C 178.169,141.333 204.835,141.5 231.5,142C 234.789,142.882 238.123,143.548 241.5,144C 244.187,144.728 246.52,145.895 248.5,147.5 Z M 194.5,183.5 C 205.673,184.123 217.007,184.623 228.5,185C 230.025,186.009 231.692,186.509 233.5,186.5C 233.973,187.906 234.973,188.573 236.5,188.5C 242.944,193.106 246.611,199.44 247.5,207.5C 247.577,211.962 246.91,216.295 245.5,220.5C 244.11,221.899 243.11,223.566 242.5,225.5C 240.5,226.833 238.833,228.5 237.5,230.5C 232.557,233.728 227.224,235.728 221.5,236.5C 212.5,236.5 203.5,236.5 194.5,236.5C 194.5,218.833 194.5,201.167 194.5,183.5 Z"/></g>
<g><path style="opacity:1" fill="#4f4d4f" d="M 248.5,147.5 C 250.553,147.402 252.22,148.069 253.5,149.5C 251.219,149.923 249.552,149.256 248.5,147.5 Z"/></g>
<g><path style="opacity:1" fill="#a4a2a3" d="M 269.5,160.5 C 271.262,161.262 272.262,162.596 272.5,164.5C 270.738,163.738 269.738,162.404 269.5,160.5 Z"/></g>
<g><path style="opacity:1" fill="#312f30" d="M 274.5,166.5 C 278.052,169.387 280.385,173.053 281.5,177.5C 278.933,176.461 276.6,174.461 274.5,171.5C 275.535,169.872 275.535,168.205 274.5,166.5 Z"/></g>
<g><path style="opacity:1" fill="#9f999c" d="M 233.5,186.5 C 235.027,186.427 236.027,187.094 236.5,188.5C 234.973,188.573 233.973,187.906 233.5,186.5 Z"/></g>
<g><path style="opacity:1" fill="#5d5a5c" d="M 285.5,185.5 C 287.472,188.084 288.472,191.084 288.5,194.5C 286.69,191.855 285.69,188.855 285.5,185.5 Z"/></g>
<g><path style="opacity:1" fill="#767577" d="M 289.5,198.5 C 290.165,201.984 290.499,205.651 290.5,209.5C 290.713,214.767 290.046,219.767 288.5,224.5C 289.299,215.858 289.632,207.191 289.5,198.5 Z"/></g>
<g><path style="opacity:1" fill="#484344" d="M 247.5,207.5 C 248.634,209.966 248.801,212.633 248,215.5C 247.95,217.744 247.117,219.411 245.5,220.5C 246.91,216.295 247.577,211.962 247.5,207.5 Z"/></g>
<g><path style="opacity:1" fill="#5f5a5c" d="M 245.5,220.5 C 246.515,222.964 245.515,224.63 242.5,225.5C 243.11,223.566 244.11,221.899 245.5,220.5 Z"/></g>
<g><path style="opacity:1" fill="#595759" d="M 242.5,225.5 C 241.833,228.167 240.167,229.833 237.5,230.5C 238.833,228.5 240.5,226.833 242.5,225.5 Z"/></g>
<g><path style="opacity:1" fill="#5a5a5a" d="M 288.5,226.5 C 288.405,228.786 287.738,230.786 286.5,232.5C 286.054,229.99 286.72,227.99 288.5,226.5 Z"/></g>
<g><path style="opacity:1" fill="#555455" d="M 194.5,183.5 C 194.5,201.167 194.5,218.833 194.5,236.5C 203.5,236.5 212.5,236.5 221.5,236.5C 212.348,237.494 203.015,237.827 193.5,237.5C 193.17,219.326 193.503,201.326 194.5,183.5 Z"/></g>
<g><path style="opacity:1" fill="#c1c0c1" d="M 277.5,249.5 C 277.573,251.027 276.906,252.027 275.5,252.5C 275.427,250.973 276.094,249.973 277.5,249.5 Z"/></g>
<g><path style="opacity:1" fill="#6d686a" d="M 255.5,269.5 C 255.993,271.806 256.326,274.139 256.5,276.5C 254.688,274.287 254.355,271.953 255.5,269.5 Z"/></g>
<g><path style="opacity:1" fill="#4f4d4d" d="M 213.5,279.5 C 214.931,279.881 215.764,280.881 216,282.5C 216.495,284.473 216.662,286.473 216.5,288.5C 215.265,285.67 214.265,282.67 213.5,279.5 Z"/></g>
<g><path style="opacity:1" fill="#6f6f6f" d="M 262.5,287.5 C 264.914,288.911 266.581,290.911 267.5,293.5C 265.086,292.089 263.419,290.089 262.5,287.5 Z"/></g>
<g><path style="opacity:1" fill="#a8a4a4" d="M 270.5,295.5 C 271.5,295.833 272.167,296.5 272.5,297.5C 271.167,297.5 270.5,296.833 270.5,295.5 Z"/></g>
<g><path style="opacity:1" fill="#838284" d="M 349.5,301.5 C 347.637,299.295 345.303,297.961 342.5,297.5C 343.002,295.915 344.002,295.415 345.5,296C 347.464,297.451 348.797,299.284 349.5,301.5 Z"/></g>
<g><path style="opacity:1" fill="#928787" d="M 335.5,302.5 C 335.027,303.906 334.027,304.573 332.5,304.5C 332.973,303.094 333.973,302.427 335.5,302.5 Z"/></g>
<g><path style="opacity:1" fill="#0c0c0c" d="M 195.5,318.5 C 195.5,323.833 195.5,329.167 195.5,334.5C 190.295,346.938 180.962,351.771 167.5,349C 151.703,341.907 147.203,330.407 154,314.5C 162.835,304.111 173.668,301.611 186.5,307C 190.583,310.005 193.583,313.839 195.5,318.5 Z"/></g>
<g><path style="opacity:1" fill="#595859" d="M 331.5,304.5 C 330.313,306.975 328.313,307.975 325.5,307.5C 327.456,306.508 329.456,305.508 331.5,304.5 Z"/></g>
<g><path style="opacity:1" fill="#a1a0a1" d="M 294.5,308.5 C 297.067,308.721 299.401,309.388 301.5,310.5C 298.772,310.829 296.438,310.163 294.5,308.5 Z"/></g>
<g><path style="opacity:1" fill="#525051" d="M 311.5,310.5 C 308.5,311.833 305.5,311.833 302.5,310.5C 305.19,310.339 308.19,310.339 311.5,310.5 Z"/></g>
<g><path style="opacity:1" fill="#7e7676" d="M 229.5,313.5 C 231.446,314.035 232.446,315.368 232.5,317.5C 231.026,316.564 230.026,315.23 229.5,313.5 Z"/></g>
<g><path style="opacity:1" fill="#909093" d="M 361.5,313.5 C 363.262,314.262 364.262,315.596 364.5,317.5C 362.738,316.738 361.738,315.404 361.5,313.5 Z"/></g>
<g><path style="opacity:1" fill="#4a4747" d="M 195.5,318.5 C 198.167,323.833 198.167,329.167 195.5,334.5C 195.5,329.167 195.5,323.833 195.5,318.5 Z"/></g>
<g><path style="opacity:1" fill="#989191" d="M 245.5,330.5 C 247.027,330.427 248.027,331.094 248.5,332.5C 246.973,332.573 245.973,331.906 245.5,330.5 Z"/></g>
<g><path style="opacity:1" fill="#5d5a5a" d="M 368.5,330.5 C 367.674,332.264 366.341,333.598 364.5,334.5C 364.5,333.5 364.5,332.5 364.5,331.5C 365.959,331.567 367.292,331.234 368.5,330.5 Z"/></g>
<g><path style="opacity:1" fill="#686464" d="M 284.5,349.5 C 287.495,349.294 290.162,349.96 292.5,351.5C 289.505,351.706 286.838,351.04 284.5,349.5 Z"/></g>
</svg>
